<svg version="1.1" id="Capa_1" xmlns="http://www.w3.org/2000/svg" xmlns:xlink="http://www.w3.org/1999/xlink" x="0px" y="0px"
	 viewBox="0 0 1080 1080" style="enable-background:new 0 0 1080 1080;" xml:space="preserve">
<style type="text/css">
	.st0{display:none;}
	.st1{display:inline;fill:#00FFC3;}
	.st2{display:inline;fill:url(#SVGID_1_);}
	.st3{fill:#00FFC3;}
	.st4{fill:url(#SVGID_2_);}
	.st5{display:inline;}
	.st6{fill:url(#SVGID_3_);}
	.st7{fill:url(#SVGID_4_);}
	.st8{fill:url(#SVGID_5_);}
	.st9{fill:url(#SVGID_6_);}
	.st10{fill:url(#SVGID_7_);}
	.st11{fill:url(#SVGID_8_);}
	.st12{fill:url(#SVGID_9_);}
</style>
<g class="st0">
	<path class="st1" d="M640.8,175.8L371.1,357.6c0,0-48.5,31.7-61.2,113.8v145.1c0,0,2.7,55.3,48.1,96.1l8.2,8.2l63.7,45.1
		l-28.3-59.2c0,0-26.3-62.1,17.7-92.9l327.3-223c0,0,23.9-19.9,23.7-57.6v-84.3C770.1,248.8,746.9,135,640.8,175.8z"/>
	<linearGradient id="SVGID_1_" gradientUnits="userSpaceOnUse" x1="393.4913" y1="727.6342" x2="762.2789" y2="727.6342">
		<stop  offset="5.586592e-03" style="stop-color:#0ED6A7"/>
		<stop  offset="1" style="stop-color:#00FFC3"/>
	</linearGradient>
	<path class="st2" d="M524,542.2l206.5,137.7c0,0,29.9,18.6,31.7,58.9v97c0,0-14.1,109.7-129.2,67.5L429.8,765.8l-26.7-55.7
		c0,0-28.2-62.2,12-93.4L524,542.2z"/>
</g>
<g>
	<path class="st3" d="M439.2,904.2l269.7-181.8c0,0,48.5-31.7,61.2-113.8V463.6c0,0-2.7-55.3-48.1-96.1l-8.2-8.2l-63.7-45.1
		l28.3,59.2c0,0,26.3,62.1-17.7,92.9l-327.3,223c0,0-23.9,19.9-23.7,57.6v84.3C309.9,831.2,333.1,945,439.2,904.2z"/>
	
		<linearGradient id="SVGID_2_" gradientUnits="userSpaceOnUse" x1="377.2407" y1="753.327" x2="746.0283" y2="753.327" gradientTransform="matrix(-1 0 0 -1 1063.7493 1105.6929)">
		<stop  offset="5.586592e-03" style="stop-color:#0ED6A7"/>
		<stop  offset="1" style="stop-color:#00FFC3"/>
	</linearGradient>
	<path class="st4" d="M556,537.8L349.5,400.1c0,0-29.9-18.6-31.7-58.9v-97c0,0,14.1-109.7,129.2-67.5l203.3,137.6l26.7,55.7
		c0,0,28.2,62.2-12,93.4L556,537.8z"/>
</g>
<g class="st0">
	<g class="st5">
		<linearGradient id="SVGID_3_" gradientUnits="userSpaceOnUse" x1="-323.4839" y1="595.2175" x2="1418.2383" y2="595.2175">
			<stop  offset="0" style="stop-color:#5FD7F4"/>
			<stop  offset="7.590035e-02" style="stop-color:#46E1E7"/>
			<stop  offset="0.1909" style="stop-color:#28EED8"/>
			<stop  offset="0.3033" style="stop-color:#12F8CC"/>
			<stop  offset="0.4109" style="stop-color:#05FDC5"/>
			<stop  offset="0.5084" style="stop-color:#00FFC3"/>
			<stop  offset="0.7239" style="stop-color:#02FEC4"/>
			<stop  offset="0.8059" style="stop-color:#09FBC8"/>
			<stop  offset="0.8651" style="stop-color:#15F6CE"/>
			<stop  offset="0.9133" style="stop-color:#26EFD7"/>
			<stop  offset="0.9549" style="stop-color:#3CE6E2"/>
			<stop  offset="0.9913" style="stop-color:#57DAF0"/>
			<stop  offset="1" style="stop-color:#5FD7F4"/>
		</linearGradient>
		<path class="st6" d="M-126.5,391.2V426H-203v274.8h76.5v34.8h-197v-34.8h76.5V426h-76.5v-34.8H-126.5z"/>
		<linearGradient id="SVGID_4_" gradientUnits="userSpaceOnUse" x1="-323.4839" y1="595.2175" x2="1418.2383" y2="595.2175">
			<stop  offset="0" style="stop-color:#5FD7F4"/>
			<stop  offset="7.590035e-02" style="stop-color:#46E1E7"/>
			<stop  offset="0.1909" style="stop-color:#28EED8"/>
			<stop  offset="0.3033" style="stop-color:#12F8CC"/>
			<stop  offset="0.4109" style="stop-color:#05FDC5"/>
			<stop  offset="0.5084" style="stop-color:#00FFC3"/>
			<stop  offset="0.7239" style="stop-color:#02FEC4"/>
			<stop  offset="0.8059" style="stop-color:#09FBC8"/>
			<stop  offset="0.8651" style="stop-color:#15F6CE"/>
			<stop  offset="0.9133" style="stop-color:#26EFD7"/>
			<stop  offset="0.9549" style="stop-color:#3CE6E2"/>
			<stop  offset="0.9913" style="stop-color:#57DAF0"/>
			<stop  offset="1" style="stop-color:#5FD7F4"/>
		</linearGradient>
		<path class="st7" d="M144.3,444.2l13,39.5c-11.2,3.5-23.1,5.7-35.8,6.5c-12.7,0.8-26.4,1.2-41.2,1.2c15.2,7,26.6,16,34.2,27.1
			c7.7,11.1,11.5,24.1,11.5,39.1c0,17.3-3.9,32.8-11.8,46.2c-7.8,13.5-19.1,24.1-33.9,31.8c-14.8,7.7-32.5,11.5-53.4,11.5
			c-8.8,0-16.2-0.4-22.1-1.2c-5.9-0.8-11.6-2.1-17.1-3.8c-4,2.7-7.3,6.3-9.9,11c-2.6,4.7-3.9,9.5-3.9,14.5c0,6.3,2.5,11.6,7.5,15.8
			c5,4.2,14.2,6.2,27.8,6.2h47.5c17.7,0,33.5,3.2,47.6,9.5c14.1,6.3,25.2,14.8,33.2,25.5c8.1,10.7,12.1,22.8,12.1,36.5
			c0,25.8-11,45.7-32.9,59.5C95,834.5,64,841.5,24,841.5c-28,0-50.1-2.9-66.2-8.6c-16.2-5.8-27.7-14.5-34.6-26.2
			c-6.9-11.8-10.4-26.5-10.4-44.4h38c0,10.2,2,18.6,6,25.2c4,6.7,11.2,11.6,21.8,14.9s25.6,4.9,45.2,4.9c19.3,0,35.1-1.6,47.4-4.9
			s21.3-8.1,27.2-14.5c5.9-6.4,8.9-14.4,8.9-23.9c0-12.5-5.7-21.9-17-28.2c-11.3-6.3-25.5-9.5-42.5-9.5h-47c-22.7,0-39.4-5-50.1-15
			s-16.1-21.5-16.1-34.5c0-8.5,2.5-16.8,7.4-24.8c4.9-8,12.1-15.1,21.6-21.2c-15.2-8-26.3-17.9-33.5-29.8
			c-7.2-11.8-10.8-26.2-10.8-43c0-17.8,4.4-33.6,13.2-47.4c8.8-13.8,21.2-24.5,37-32.4c15.8-7.8,34.1-11.8,54.8-11.8
			c22.2-0.2,40.2-1.1,54-2.9c13.8-1.8,25.7-4.3,35.6-7.6C123.8,452.6,133.9,448.7,144.3,444.2z M24.3,497.2
			c-21.2,0-36.8,5.7-46.9,17.1c-10.1,11.4-15.1,26-15.1,43.6c0,17.8,5.2,32.5,15.5,44c10.3,11.5,26.2,17.2,47.5,17.2
			c18.7,0,32.9-5.4,42.6-16.2c9.8-10.8,14.6-25.9,14.6-45.2c0-19.8-4.9-34.9-14.6-45.1S43.6,497.2,24.3,497.2z"/>
		<linearGradient id="SVGID_5_" gradientUnits="userSpaceOnUse" x1="-323.4839" y1="595.2175" x2="1418.2383" y2="595.2175">
			<stop  offset="0" style="stop-color:#5FD7F4"/>
			<stop  offset="7.590035e-02" style="stop-color:#46E1E7"/>
			<stop  offset="0.1909" style="stop-color:#28EED8"/>
			<stop  offset="0.3033" style="stop-color:#12F8CC"/>
			<stop  offset="0.4109" style="stop-color:#05FDC5"/>
			<stop  offset="0.5084" style="stop-color:#00FFC3"/>
			<stop  offset="0.7239" style="stop-color:#02FEC4"/>
			<stop  offset="0.8059" style="stop-color:#09FBC8"/>
			<stop  offset="0.8651" style="stop-color:#15F6CE"/>
			<stop  offset="0.9133" style="stop-color:#26EFD7"/>
			<stop  offset="0.9549" style="stop-color:#3CE6E2"/>
			<stop  offset="0.9913" style="stop-color:#57DAF0"/>
			<stop  offset="1" style="stop-color:#5FD7F4"/>
		</linearGradient>
		<path class="st8" d="M185.3,735.5V472.2H221l3.2,36.5c10.7-13.5,24-23.9,40.1-31.1c16.1-7.2,31.7-10.9,46.9-10.9
			c25.8,0,44.6,6.8,56.4,20.5c11.8,13.7,17.6,32.7,17.6,57v191.2h-42V575.2c0-18-1-32.5-3-43.6c-2-11.1-6.2-19.2-12.5-24.2
			c-6.3-5.1-16.2-7.6-29.5-7.6c-10.3,0-20,2.2-29.1,6.8c-9.1,4.5-17.2,10.1-24.2,16.9c-7.1,6.8-13,13.5-17.6,20.4v191.8H185.3z"/>
		<linearGradient id="SVGID_6_" gradientUnits="userSpaceOnUse" x1="-323.4839" y1="595.2175" x2="1418.2383" y2="595.2175">
			<stop  offset="0" style="stop-color:#5FD7F4"/>
			<stop  offset="7.590035e-02" style="stop-color:#46E1E7"/>
			<stop  offset="0.1909" style="stop-color:#28EED8"/>
			<stop  offset="0.3033" style="stop-color:#12F8CC"/>
			<stop  offset="0.4109" style="stop-color:#05FDC5"/>
			<stop  offset="0.5084" style="stop-color:#00FFC3"/>
			<stop  offset="0.7239" style="stop-color:#02FEC4"/>
			<stop  offset="0.8059" style="stop-color:#09FBC8"/>
			<stop  offset="0.8651" style="stop-color:#15F6CE"/>
			<stop  offset="0.9133" style="stop-color:#26EFD7"/>
			<stop  offset="0.9549" style="stop-color:#3CE6E2"/>
			<stop  offset="0.9913" style="stop-color:#57DAF0"/>
			<stop  offset="1" style="stop-color:#5FD7F4"/>
		</linearGradient>
		<path class="st9" d="M628.8,678c0,10.5,1.8,18.2,5.2,23c3.5,4.8,8.9,8.4,16.2,10.8L640,741.2c-11.3-1.5-21.2-5.1-29.8-10.9
			s-14.7-14.5-18.5-26.1c-9.5,12.2-21.3,21.4-35.5,27.6c-14.2,6.2-29.8,9.4-47,9.4c-26.3,0-47.1-7.4-62.2-22.2
			c-15.2-14.8-22.8-34.5-22.8-59c0-27.2,10.6-48,31.8-62.5c21.2-14.5,51.8-21.8,91.8-21.8h38.8v-22c0-19-5.5-32.5-16.6-40.4
			c-11.1-7.9-26.5-11.9-46.1-11.9c-8.7,0-18.8,1-30.5,3.1c-11.7,2.1-24.3,5.5-38,10.4l-11-31.8c16.2-6,31.3-10.2,45.5-12.8
			c14.2-2.5,27.7-3.8,40.5-3.8c32.8,0,57.5,7.6,73.9,22.9c16.4,15.2,24.6,36,24.6,62.1V678z M520,709.2c13,0,25.4-3.3,37.3-9.9
			c11.8-6.6,21.6-15.7,29.2-27.4v-67.8h-38c-29,0-49.5,5-61.4,15c-11.9,10-17.9,23.4-17.9,40.2c0,16.3,4.2,28.7,12.6,37.1
			C490.3,705,503,709.2,520,709.2z"/>
		<linearGradient id="SVGID_7_" gradientUnits="userSpaceOnUse" x1="-323.4839" y1="595.2175" x2="1418.2383" y2="595.2175">
			<stop  offset="0" style="stop-color:#5FD7F4"/>
			<stop  offset="7.590035e-02" style="stop-color:#46E1E7"/>
			<stop  offset="0.1909" style="stop-color:#28EED8"/>
			<stop  offset="0.3033" style="stop-color:#12F8CC"/>
			<stop  offset="0.4109" style="stop-color:#05FDC5"/>
			<stop  offset="0.5084" style="stop-color:#00FFC3"/>
			<stop  offset="0.7239" style="stop-color:#02FEC4"/>
			<stop  offset="0.8059" style="stop-color:#09FBC8"/>
			<stop  offset="0.8651" style="stop-color:#15F6CE"/>
			<stop  offset="0.9133" style="stop-color:#26EFD7"/>
			<stop  offset="0.9549" style="stop-color:#3CE6E2"/>
			<stop  offset="0.9913" style="stop-color:#57DAF0"/>
			<stop  offset="1" style="stop-color:#5FD7F4"/>
		</linearGradient>
		<path class="st10" d="M814.2,705c13.2,0,25.5-2.2,36.9-6.5c11.4-4.3,22-9.8,31.6-16.5l20.5,27.5c-11.5,9.8-25.3,17.6-41.5,23.2
			c-16.2,5.7-32,8.5-47.5,8.5c-26.2,0-48.5-5.6-66.9-16.9c-18.4-11.2-32.5-27.1-42.1-47.5c-9.7-20.4-14.5-44.4-14.5-71.9
			c0-26.3,4.9-50,14.6-70.9c9.8-20.9,23.8-37.4,42.2-49.4c18.4-12,40.8-18,67.1-18c16.8,0,32.6,2.5,47.4,7.6
			c14.8,5.1,28.3,12.7,40.6,22.9l-20.5,28c-11.2-7.8-22.4-13.7-33.6-17.6c-11.2-3.9-22.7-5.9-34.4-5.9c-22.7,0-41.3,8.5-56,25.5
			c-14.7,17-22,42.9-22,77.8c0,23.3,3.4,42.4,10.1,57.1s16,25.6,27.8,32.5C785.9,701.5,799.2,705,814.2,705z"/>
		<linearGradient id="SVGID_8_" gradientUnits="userSpaceOnUse" x1="-323.4839" y1="595.2175" x2="1418.2383" y2="595.2175">
			<stop  offset="0" style="stop-color:#5FD7F4"/>
			<stop  offset="7.590035e-02" style="stop-color:#46E1E7"/>
			<stop  offset="0.1909" style="stop-color:#28EED8"/>
			<stop  offset="0.3033" style="stop-color:#12F8CC"/>
			<stop  offset="0.4109" style="stop-color:#05FDC5"/>
			<stop  offset="0.5084" style="stop-color:#00FFC3"/>
			<stop  offset="0.7239" style="stop-color:#02FEC4"/>
			<stop  offset="0.8059" style="stop-color:#09FBC8"/>
			<stop  offset="0.8651" style="stop-color:#15F6CE"/>
			<stop  offset="0.9133" style="stop-color:#26EFD7"/>
			<stop  offset="0.9549" style="stop-color:#3CE6E2"/>
			<stop  offset="0.9913" style="stop-color:#57DAF0"/>
			<stop  offset="1" style="stop-color:#5FD7F4"/>
		</linearGradient>
		<path class="st11" d="M1083.5,472.2v230h74.2v33.2H960.2v-33.2h81.2V505.5h-78.8v-33.2H1083.5z M1050,349c9.3,0,16.8,2.8,22.4,8.5
			c5.6,5.7,8.4,12.6,8.4,20.8c0,8.5-2.8,15.6-8.4,21.4c-5.6,5.8-13,8.6-22.4,8.6c-8.8,0-16.1-2.9-21.8-8.6
			c-5.7-5.8-8.5-12.9-8.5-21.4c0-8.2,2.8-15.1,8.5-20.8C1033.9,351.8,1041.2,349,1050,349z"/>
		<linearGradient id="SVGID_9_" gradientUnits="userSpaceOnUse" x1="-323.4839" y1="595.2175" x2="1418.2383" y2="595.2175">
			<stop  offset="0" style="stop-color:#5FD7F4"/>
			<stop  offset="7.590035e-02" style="stop-color:#46E1E7"/>
			<stop  offset="0.1909" style="stop-color:#28EED8"/>
			<stop  offset="0.3033" style="stop-color:#12F8CC"/>
			<stop  offset="0.4109" style="stop-color:#05FDC5"/>
			<stop  offset="0.5084" style="stop-color:#00FFC3"/>
			<stop  offset="0.7239" style="stop-color:#02FEC4"/>
			<stop  offset="0.8059" style="stop-color:#09FBC8"/>
			<stop  offset="0.8651" style="stop-color:#15F6CE"/>
			<stop  offset="0.9133" style="stop-color:#26EFD7"/>
			<stop  offset="0.9549" style="stop-color:#3CE6E2"/>
			<stop  offset="0.9913" style="stop-color:#57DAF0"/>
			<stop  offset="1" style="stop-color:#5FD7F4"/>
		</linearGradient>
		<path class="st12" d="M1305.5,466.7c24.8,0,45.6,5.6,62.4,16.9s29.3,27.1,37.8,47.6c8.4,20.5,12.6,44.7,12.6,72.5
			c0,26.8-4.3,50.6-13,71.2c-8.7,20.7-21.4,36.9-38.1,48.6s-37.5,17.6-62.1,17.6c-24.7,0-45.4-5.7-62.2-17
			c-16.8-11.3-29.5-27.3-38.1-47.9c-8.6-20.6-12.9-44.6-12.9-72.1c0-27.2,4.3-51.1,13-71.8c8.7-20.7,21.5-36.8,38.4-48.4
			C1260,472.5,1280.8,466.7,1305.5,466.7z M1305.5,501c-22.7,0-39.8,8.4-51.4,25.1c-11.6,16.8-17.4,42.8-17.4,78.1
			c0,34.7,5.7,60.4,17.1,77.2c11.4,16.8,28.5,25.2,51.1,25.2c22.7,0,39.7-8.4,51.1-25.2c11.4-16.8,17.1-42.8,17.1-77.8
			s-5.7-60.9-17-77.6C1344.9,509.3,1328,501,1305.5,501z"/>
	</g>
</g>
</svg>
