<?xml version="1.0" encoding="utf-8"?>
<!-- Generator: Adobe Illustrator 25.0.0, SVG Export Plug-In . SVG Version: 6.00 Build 0)  -->
<svg version="1.1" id="Capa_1" xmlns="http://www.w3.org/2000/svg" xmlns:xlink="http://www.w3.org/1999/xlink" x="0px" y="0px"
	 viewBox="0 0 3662.6 1080" style="enable-background:new 0 0 3662.6 1080;" xml:space="preserve">
<style type="text/css">
	.st0{fill:#00FFC3;}
	.st1{fill:url(#SVGID_1_);}
	.st2{fill:url(#SVGID_2_);}
	.st3{fill:url(#SVGID_3_);}
	.st4{fill:url(#SVGID_4_);}
	.st5{fill:url(#SVGID_5_);}
	.st6{fill:url(#SVGID_6_);}
	.st7{fill:url(#SVGID_7_);}
	.st8{fill:url(#SVGID_8_);}
	.st9{fill:url(#SVGID_9_);}
	.st10{fill:url(#SVGID_10_);}
</style>
<g>
	<path class="st0" d="M414.9,127.3L123.1,324c0,0-52.5,34.4-66.2,123.1v157c0,0,3,59.9,52,104l8.8,8.8l69,48.8l-30.8-64.1
		c0,0-28.4-67.2,19.2-100.6l354.1-241.3c0,0,25.8-21.5,25.7-62.3v-91.3C554.9,206.2,529.7,83.1,414.9,127.3z"/>
	
		<linearGradient id="SVGID_1_" gradientUnits="userSpaceOnUse" x1="147.4091" y1="355.6715" x2="546.4002" y2="355.6715" gradientTransform="matrix(1 0 0 -1 0 1080)">
		<stop  offset="5.586592e-03" style="stop-color:#007B5E"/>
		<stop  offset="0.9992" style="stop-color:#007B5E"/>
		<stop  offset="1" style="stop-color:#007B5E"/>
	</linearGradient>
	<path class="st1" d="M288.5,523.8L512,672.7c0,0,32.4,20.2,34.4,63.8v105c0,0-15.2,118.7-139.8,73.1l-220-148.8l-28.8-60.3
		c0,0-30.5-67.4,13.1-101L288.5,523.8z"/>
</g>
<g>
	<path class="st0" d="M691.8,761.1l175.8-118.5c0,0,31.7-20.7,39.9-74.2v-94.5c0,0-1.8-36.1-31.3-62.6l-5.3-5.3l-41.5-29.4
		l18.4,38.5c0,0,17.1,40.5-11.6,60.6L622.9,621.1c0,0-15.5,13-15.4,37.5v55C607.5,713.6,622.6,787.7,691.8,761.1z"/>
	
		<linearGradient id="SVGID_2_" gradientUnits="userSpaceOnUse" x1="5034.584" y1="399.2556" x2="5274.9863" y2="399.2556" gradientTransform="matrix(-1 0 0 1 5887.5752 2.2146)">
		<stop  offset="5.586592e-03" style="stop-color:#007B5E"/>
		<stop  offset="1" style="stop-color:#007B5E"/>
	</linearGradient>
	<path class="st2" d="M767.9,522.3l-134.6-89.8c0,0-19.5-12.1-20.7-38.4v-63.2c0,0,9.1-71.5,84.2-44l132.5,89.7l17.4,36.3
		c0,0,18.4,40.6-7.9,60.8L767.9,522.3z"/>
</g>
<g>
	<g>
		<g>
			<path d="M1214.4,359.1v305.3h98.5v44.1h-262.1v-44.1h107.8V403.3h-104.6v-44.1h160.5V359.1z M1169.9,195.6
				c12.3,0,22.3,3.7,29.7,11.3s11.1,16.7,11.1,27.6c0,11.3-3.7,20.7-11.1,28.4c-7.4,7.7-17.3,11.4-29.7,11.4
				c-11.7,0-21.4-3.8-28.9-11.4c-7.6-7.7-11.3-17.1-11.3-28.4c0-10.9,3.7-20,11.3-27.6C1148.5,199.3,1158.1,195.6,1169.9,195.6z"/>
			<path d="M1659.9,321.9l17.3,52.4c-14.9,4.6-30.7,7.6-47.5,8.6c-16.9,1.1-35,1.6-54.7,1.6c20.2,9.3,35.3,21.2,45.4,36
				c10.2,14.7,15.3,32,15.3,51.9c0,23-5.2,43.5-15.7,61.3c-10.4,17.9-25.3,32-45,42.2c-19.6,10.2-43.1,15.3-70.9,15.3
				c-11.7,0-21.5-0.5-29.3-1.6c-7.8-1.1-15.4-2.8-22.7-5c-5.3,3.6-9.7,8.4-13.1,14.6c-3.5,6.2-5.2,12.6-5.2,19.2
				c0,8.4,3.3,15.4,10,21s18.8,8.2,36.9,8.2h63c23.5,0,44.5,4.2,63.2,12.6c18.7,8.4,33.4,19.6,44.1,33.8
				c10.8,14.2,16.1,30.3,16.1,48.4c0,34.2-14.6,60.7-43.7,79s-70.2,27.6-123.3,27.6c-37.2,0-66.5-3.8-87.9-11.4
				c-21.5-7.7-36.8-19.2-45.9-34.8c-9.2-15.7-13.8-35.2-13.8-58.9h50.4c0,13.5,2.7,24.7,8,33.4c5.3,8.9,14.9,15.4,28.9,19.8
				c14.1,4.4,34,6.5,60,6.5c25.6,0,46.6-2.1,62.9-6.5s28.3-10.8,36.1-19.2s11.8-19.1,11.8-31.7c0-16.6-7.6-29.1-22.6-37.4
				s-33.8-12.6-56.4-12.6h-62.4c-30.1,0-52.3-6.6-66.5-19.9c-14.2-13.3-21.4-28.5-21.4-45.8c0-11.3,3.3-22.3,9.8-32.9
				c6.5-10.6,16.1-20,28.7-28.1c-20.2-10.6-34.9-23.8-44.5-39.5c-9.6-15.7-14.3-34.8-14.3-57.1c0-23.6,5.8-44.6,17.5-62.9
				c11.7-18.3,28.1-32.5,49.1-43c21-10.4,45.3-15.7,72.7-15.7c29.5-0.3,53.4-1.5,71.7-3.8c18.3-2.4,34.1-5.7,47.2-10.1
				C1632.7,333.2,1646.2,327.9,1659.9,321.9z M1500.6,392.3c-28.1,0-48.8,7.6-62.2,22.7c-13.4,15.1-20,34.5-20,57.9
				c0,23.6,6.9,43.1,20.6,58.4c13.7,15.3,34.8,22.8,63,22.8c24.8,0,43.7-7.2,56.5-21.5c13-14.3,19.4-34.4,19.4-60
				c0-26.3-6.5-46.3-19.4-59.9C1545.6,399.2,1526.3,392.3,1500.6,392.3z"/>
			<path d="M1714.3,708.5V359.1h47.5l4.2,48.4c14.2-17.9,31.9-31.7,53.2-41.3c21.4-9.6,42.1-14.5,62.2-14.5c34.2,0,59.2,9,74.9,27.2
				c15.7,18.2,23.4,43.4,23.4,75.6v253.8H1924V495.8c0-23.9-1.3-43.1-4-57.9c-2.7-14.7-8.2-25.5-16.6-32.1
				c-8.4-6.8-21.5-10.1-39.2-10.1c-13.7,0-26.5,2.9-38.6,9c-12.1,6-22.8,13.4-32.1,22.4c-9.4,9-17.3,17.9-23.4,27.1v254.6h-55.9
				V708.5z"/>
			<path d="M2302.9,632.2c0,13.9,2.4,24.2,6.9,30.5c4.6,6.4,11.8,11.1,21.5,14.3l-13.5,39.2c-15-2-28.1-6.8-39.6-14.5
				s-19.5-19.2-24.6-34.6c-12.6,16.2-28.3,28.4-47.1,36.6c-18.8,8.2-39.5,12.5-62.4,12.5c-34.9,0-62.5-9.8-82.6-29.5
				c-20.2-19.6-30.3-45.8-30.3-78.3c0-36.1,14.1-63.7,42.2-82.9s68.7-28.9,121.8-28.9h51.5v-29.2c0-25.2-7.3-43.1-22-53.6
				c-14.7-10.5-35.2-15.8-61.2-15.8c-11.5,0-25,1.3-40.5,4.1s-32.3,7.3-50.4,13.8l-14.6-42.2c21.5-8,41.5-13.5,60.4-17
				c18.8-3.3,36.8-5,53.8-5c43.5,0,76.3,10.1,98.1,30.4c21.8,20.2,32.6,47.8,32.6,82.4v167.8H2302.9z M2158.7,673.6
				c17.3,0,33.7-4.4,49.4-13.1c15.7-8.8,28.7-20.8,38.8-36.4v-90h-50.4c-38.5,0-65.7,6.6-81.5,19.9s-23.8,31.1-23.8,53.4
				c0,21.6,5.6,38.1,16.7,49.2C2119.1,668,2136.1,673.6,2158.7,673.6z"/>
			<path d="M2549.1,668c17.5,0,33.8-2.9,49-8.6c15.1-5.7,29.2-13,41.9-21.9l27.2,36.5c-15.3,13-33.6,23.4-55.1,30.8
				c-21.5,7.6-42.5,11.3-63,11.3c-34.8,0-64.4-7.4-88.8-22.4c-24.4-14.9-43.1-36-55.9-63c-12.9-27.1-19.2-58.9-19.2-95.4
				c0-34.9,6.5-66.4,19.4-94.1c13-27.7,31.6-49.6,56-65.6c24.4-15.9,54.1-23.9,89.1-23.9c22.3,0,43.3,3.3,62.9,10.1
				c19.6,6.8,37.6,16.9,53.9,30.4l-27.2,37.2c-14.9-10.4-29.7-18.2-44.6-23.4c-14.9-5.2-30.1-7.8-45.7-7.8
				c-30.1,0-54.8,11.3-74.3,33.8c-19.5,22.6-29.2,56.9-29.2,103.1c0,30.9,4.5,56.3,13.4,75.8c8.9,19.5,21.2,34,36.9,43.1
				C2511.4,663.4,2529.2,668,2549.1,668z"/>
			<path d="M2906.4,359.1v305.3h98.5v44.1h-262.1v-44.1h107.8V403.3h-104.6v-44.1h160.5V359.1z M2861.9,195.6
				c12.3,0,22.3,3.7,29.7,11.3c7.4,7.6,11.1,16.7,11.1,27.6c0,11.3-3.7,20.7-11.1,28.4c-7.4,7.7-17.3,11.4-29.7,11.4
				c-11.7,0-21.4-3.8-28.9-11.4c-7.6-7.7-11.3-17.1-11.3-28.4c0-10.9,3.7-20,11.3-27.6C2840.7,199.3,2850.3,195.6,2861.9,195.6z"/>
			<path d="M3201,351.8c32.9,0,60.5,7.4,82.8,22.4c22.3,15,38.9,36,50.2,63.2c11.1,27.2,16.7,59.3,16.7,96.2
				c0,35.6-5.7,67.2-17.3,94.5c-11.5,27.5-28.4,49-50.6,64.5c-22.2,15.5-49.8,23.4-82.4,23.4c-32.8,0-60.3-7.6-82.6-22.6
				c-22.3-15-39.2-36.2-50.6-63.6c-11.4-27.3-17.1-59.2-17.1-95.7c0-36.1,5.7-67.8,17.3-95.2c11.5-27.5,28.5-48.8,51-64.2
				C3140.8,359.5,3168.4,351.8,3201,351.8z M3201,397.3c-30.1,0-52.8,11.1-68.2,33.3c-15.4,22.2-23.1,56.8-23.1,103.7
				c0,46.1,7.6,80.2,22.7,102.5c15.1,22.3,37.8,33.4,67.8,33.4c30.1,0,52.7-11.1,67.8-33.4c15.1-22.3,22.7-56.8,22.7-103.3
				s-7.6-80.8-22.6-103C3253.5,408.4,3230.9,397.3,3201,397.3z"/>
		</g>
	</g>
	<g>
		
			<linearGradient id="SVGID_3_" gradientUnits="userSpaceOnUse" x1="1050.7328" y1="628.0195" x2="3350.6963" y2="628.0195" gradientTransform="matrix(1 0 0 -1 0 1080)">
			<stop  offset="0" style="stop-color:#FFFFFF"/>
			<stop  offset="0.5084" style="stop-color:#FFFFFF"/>
			<stop  offset="0.9295" style="stop-color:#FFFFFF"/>
			<stop  offset="1" style="stop-color:#FFFFFF"/>
		</linearGradient>
		<path class="st3" d="M1214.4,359.1v305.3h98.5v44.1h-262.1v-44.1h107.8V403.3h-104.6v-44.1h160.5V359.1z M1169.9,195.6
			c12.3,0,22.3,3.7,29.7,11.3s11.1,16.7,11.1,27.6c0,11.3-3.7,20.7-11.1,28.4c-7.4,7.7-17.3,11.4-29.7,11.4
			c-11.7,0-21.4-3.8-28.9-11.4c-7.6-7.7-11.3-17.1-11.3-28.4c0-10.9,3.7-20,11.3-27.6C1148.5,199.3,1158.1,195.6,1169.9,195.6z"/>
		
			<linearGradient id="SVGID_4_" gradientUnits="userSpaceOnUse" x1="1050.7511" y1="494.5054" x2="3350.7146" y2="494.5054" gradientTransform="matrix(1 0 0 -1 0 1080)">
			<stop  offset="0" style="stop-color:#FFFFFF"/>
			<stop  offset="0.5084" style="stop-color:#FFFFFF"/>
			<stop  offset="0.9295" style="stop-color:#FFFFFF"/>
			<stop  offset="1" style="stop-color:#FFFFFF"/>
		</linearGradient>
		<path class="st4" d="M1659.9,321.9l17.3,52.4c-14.9,4.6-30.7,7.6-47.5,8.6c-16.9,1.1-35,1.6-54.7,1.6c20.2,9.3,35.3,21.2,45.4,36
			c10.2,14.7,15.3,32,15.3,51.9c0,23-5.2,43.5-15.7,61.3c-10.4,17.9-25.3,32-45,42.2c-19.6,10.2-43.1,15.3-70.9,15.3
			c-11.7,0-21.5-0.5-29.3-1.6c-7.8-1.1-15.4-2.8-22.7-5c-5.3,3.6-9.7,8.4-13.1,14.6c-3.5,6.2-5.2,12.6-5.2,19.2
			c0,8.4,3.3,15.4,10,21s18.8,8.2,36.9,8.2h63c23.5,0,44.5,4.2,63.2,12.6c18.7,8.4,33.4,19.6,44.1,33.8
			c10.8,14.2,16.1,30.3,16.1,48.4c0,34.2-14.6,60.7-43.7,79s-70.2,27.6-123.3,27.6c-37.2,0-66.5-3.8-87.9-11.4
			c-21.5-7.7-36.8-19.2-45.9-34.8c-9.2-15.7-13.8-35.2-13.8-58.9h50.4c0,13.5,2.7,24.7,8,33.4c5.3,8.9,14.9,15.4,28.9,19.8
			c14.1,4.4,34,6.5,60,6.5c25.6,0,46.6-2.1,62.9-6.5s28.3-10.8,36.1-19.2s11.8-19.1,11.8-31.7c0-16.6-7.6-29.1-22.6-37.4
			s-33.8-12.6-56.4-12.6h-62.4c-30.1,0-52.3-6.6-66.5-19.9c-14.2-13.3-21.4-28.5-21.4-45.8c0-11.3,3.3-22.3,9.8-32.9
			c6.5-10.6,16.1-20,28.7-28.1c-20.2-10.6-34.9-23.8-44.5-39.5c-9.6-15.7-14.3-34.8-14.3-57.1c0-23.6,5.8-44.6,17.5-62.9
			c11.7-18.3,28.1-32.5,49.1-43c21-10.4,45.3-15.7,72.7-15.7c29.5-0.3,53.4-1.5,71.7-3.8c18.3-2.4,34.1-5.7,47.2-10.1
			C1632.7,333.2,1646.2,327.9,1659.9,321.9z M1500.6,392.3c-28.1,0-48.8,7.6-62.2,22.7c-13.4,15.1-20,34.5-20,57.9
			c0,23.6,6.9,43.1,20.6,58.4c13.7,15.3,34.8,22.8,63,22.8c24.8,0,43.7-7.2,56.5-21.5c13-14.3,19.4-34.4,19.4-60
			c0-26.3-6.5-46.3-19.4-59.9C1545.6,399.2,1526.3,392.3,1500.6,392.3z"/>
		
			<linearGradient id="SVGID_5_" gradientUnits="userSpaceOnUse" x1="1050.7511" y1="549.716" x2="3350.7146" y2="549.716" gradientTransform="matrix(1 0 0 -1 0 1080)">
			<stop  offset="0" style="stop-color:#FFFFFF"/>
			<stop  offset="0.5084" style="stop-color:#FFFFFF"/>
			<stop  offset="0.9295" style="stop-color:#FFFFFF"/>
			<stop  offset="1" style="stop-color:#FFFFFF"/>
		</linearGradient>
		<path class="st5" d="M1714.3,708.5V359.1h47.5l4.2,48.4c14.2-17.9,31.9-31.7,53.2-41.3c21.4-9.6,42.1-14.5,62.2-14.5
			c34.2,0,59.2,9,74.9,27.2c15.7,18.2,23.4,43.4,23.4,75.6v253.8H1924V495.8c0-23.9-1.3-43.1-4-57.9c-2.7-14.7-8.2-25.5-16.6-32.1
			c-8.4-6.8-21.5-10.1-39.2-10.1c-13.7,0-26.5,2.9-38.6,9c-12.1,6-22.8,13.4-32.1,22.4c-9.4,9-17.3,17.9-23.4,27.1v254.6h-55.9
			V708.5z"/>
		
			<linearGradient id="SVGID_6_" gradientUnits="userSpaceOnUse" x1="1050.7511" y1="546.0662" x2="3350.7146" y2="546.0662" gradientTransform="matrix(1 0 0 -1 0 1080)">
			<stop  offset="0" style="stop-color:#FFFFFF"/>
			<stop  offset="0.5084" style="stop-color:#FFFFFF"/>
			<stop  offset="0.9295" style="stop-color:#FFFFFF"/>
			<stop  offset="1" style="stop-color:#FFFFFF"/>
		</linearGradient>
		<path class="st6" d="M2302.9,632.2c0,13.9,2.4,24.2,6.9,30.5c4.6,6.4,11.8,11.1,21.5,14.3l-13.5,39.2c-15-2-28.1-6.8-39.6-14.5
			s-19.5-19.2-24.6-34.6c-12.6,16.2-28.3,28.4-47.1,36.6c-18.8,8.2-39.5,12.5-62.4,12.5c-34.9,0-62.5-9.8-82.6-29.5
			c-20.2-19.6-30.3-45.8-30.3-78.3c0-36.1,14.1-63.7,42.2-82.9s68.7-28.9,121.8-28.9h51.5v-29.2c0-25.2-7.3-43.1-22-53.6
			c-14.7-10.5-35.2-15.8-61.2-15.8c-11.5,0-25,1.3-40.5,4.1s-32.3,7.3-50.4,13.8l-14.6-42.2c21.5-8,41.5-13.5,60.4-17
			c18.8-3.3,36.8-5,53.8-5c43.5,0,76.3,10.1,98.1,30.4c21.8,20.2,32.6,47.8,32.6,82.4v167.8H2302.9z M2158.7,673.6
			c17.3,0,33.7-4.4,49.4-13.1c15.7-8.8,28.7-20.8,38.8-36.4v-90h-50.4c-38.5,0-65.7,6.6-81.5,19.9s-23.8,31.1-23.8,53.4
			c0,21.6,5.6,38.1,16.7,49.2C2119.1,668,2136.1,673.6,2158.7,673.6z"/>
		
			<linearGradient id="SVGID_7_" gradientUnits="userSpaceOnUse" x1="1050.7511" y1="546.1326" x2="3350.7146" y2="546.1326" gradientTransform="matrix(1 0 0 -1 0 1080)">
			<stop  offset="0" style="stop-color:#FFFFFF"/>
			<stop  offset="0.5084" style="stop-color:#FFFFFF"/>
			<stop  offset="0.9295" style="stop-color:#FFFFFF"/>
			<stop  offset="1" style="stop-color:#FFFFFF"/>
		</linearGradient>
		<path class="st7" d="M2549.1,668c17.5,0,33.8-2.9,49-8.6c15.1-5.7,29.2-13,41.9-21.9l27.2,36.5c-15.3,13-33.6,23.4-55.1,30.8
			c-21.5,7.6-42.5,11.3-63,11.3c-34.8,0-64.4-7.4-88.8-22.4c-24.4-14.9-43.1-36-55.9-63c-12.9-27.1-19.2-58.9-19.2-95.4
			c0-34.9,6.5-66.4,19.4-94.1c13-27.7,31.6-49.6,56-65.6c24.4-15.9,54.1-23.9,89.1-23.9c22.3,0,43.3,3.3,62.9,10.1
			c19.6,6.8,37.6,16.9,53.9,30.4l-27.2,37.2c-14.9-10.4-29.7-18.2-44.6-23.4c-14.9-5.2-30.1-7.8-45.7-7.8
			c-30.1,0-54.8,11.3-74.3,33.8c-19.5,22.6-29.2,56.9-29.2,103.1c0,30.9,4.5,56.3,13.4,75.8c8.9,19.5,21.2,34,36.9,43.1
			C2511.4,663.4,2529.2,668,2549.1,668z"/>
		
			<linearGradient id="SVGID_8_" gradientUnits="userSpaceOnUse" x1="1050.7511" y1="628.0195" x2="3350.7146" y2="628.0195" gradientTransform="matrix(1 0 0 -1 0 1080)">
			<stop  offset="0" style="stop-color:#FFFFFF"/>
			<stop  offset="0.5084" style="stop-color:#FFFFFF"/>
			<stop  offset="0.9295" style="stop-color:#FFFFFF"/>
			<stop  offset="1" style="stop-color:#FFFFFF"/>
		</linearGradient>
		<path class="st8" d="M2906.4,359.1v305.3h98.5v44.1h-262.1v-44.1h107.8V403.3h-104.6v-44.1h160.5V359.1z M2861.9,195.6
			c12.3,0,22.3,3.7,29.7,11.3c7.4,7.6,11.1,16.7,11.1,27.6c0,11.3-3.7,20.7-11.1,28.4c-7.4,7.7-17.3,11.4-29.7,11.4
			c-11.7,0-21.4-3.8-28.9-11.4c-7.6-7.7-11.3-17.1-11.3-28.4c0-10.9,3.7-20,11.3-27.6C2840.7,199.3,2850.3,195.6,2861.9,195.6z"/>
		
			<linearGradient id="SVGID_9_" gradientUnits="userSpaceOnUse" x1="1050.7511" y1="546.1326" x2="3350.7146" y2="546.1326" gradientTransform="matrix(1 0 0 -1 0 1080)">
			<stop  offset="0" style="stop-color:#FFFFFF"/>
			<stop  offset="0.5084" style="stop-color:#FFFFFF"/>
			<stop  offset="0.9295" style="stop-color:#FFFFFF"/>
			<stop  offset="1" style="stop-color:#FFFFFF"/>
		</linearGradient>
		<path class="st9" d="M3201,351.8c32.9,0,60.5,7.4,82.8,22.4c22.3,15,38.9,36,50.2,63.2c11.1,27.2,16.7,59.3,16.7,96.2
			c0,35.6-5.7,67.2-17.3,94.5c-11.5,27.5-28.4,49-50.6,64.5c-22.2,15.5-49.8,23.4-82.4,23.4c-32.8,0-60.3-7.6-82.6-22.6
			c-22.3-15-39.2-36.2-50.6-63.6c-11.4-27.3-17.1-59.2-17.1-95.7c0-36.1,5.7-67.8,17.3-95.2c11.5-27.5,28.5-48.8,51-64.2
			C3140.8,359.5,3168.4,351.8,3201,351.8z M3201,397.3c-30.1,0-52.8,11.1-68.2,33.3c-15.4,22.2-23.1,56.8-23.1,103.7
			c0,46.1,7.6,80.2,22.7,102.5c15.1,22.3,37.8,33.4,67.8,33.4c30.1,0,52.7-11.1,67.8-33.4c15.1-22.3,22.7-56.8,22.7-103.3
			s-7.6-80.8-22.6-103C3253.5,408.4,3230.9,397.3,3201,397.3z"/>
	</g>
</g>
<linearGradient id="SVGID_10_" gradientUnits="userSpaceOnUse" x1="493.7792" y1="522.3209" x2="599.0212" y2="522.3209">
	<stop  offset="5.586592e-03" style="stop-color:#00FFC3"/>
	<stop  offset="1" style="stop-color:#00FFC3"/>
</linearGradient>
<path class="st10" d="M572,574.9h-51.2c-14.9,0-27-12.1-27-27v-51.2c0-14.9,12.1-27,27-27H572c14.9,0,27,12.1,27,27v51.2
	C599,562.9,586.9,574.9,572,574.9z"/>
</svg>
